<?xml version="1.0" encoding="UTF-8"?>
<svg id="Layer_1" data-name="Layer 1" xmlns="http://www.w3.org/2000/svg" xmlns:xlink="http://www.w3.org/1999/xlink" viewBox="0 0 1315 804">
  <defs>
    <style>
      .cls-1, .cls-2, .cls-3, .cls-4, .cls-5, .cls-6, .cls-7, .cls-8, .cls-9, .cls-10, .cls-11, .cls-12 {
        fill: none;
      }

      .cls-13 {
        fill: #f15a24;
      }

      .cls-2 {
        stroke-dasharray: 10.2 10.2;
      }

      .cls-2, .cls-3, .cls-4, .cls-5, .cls-6, .cls-8, .cls-9 {
        stroke-linejoin: round;
      }

      .cls-2, .cls-3, .cls-4, .cls-6, .cls-7, .cls-8, .cls-11 {
        stroke-width: 3px;
      }

      .cls-2, .cls-4, .cls-6, .cls-14 {
        stroke: #ff3c00;
      }

      .cls-3 {
        stroke: #863df9;
      }

      .cls-3, .cls-5, .cls-15, .cls-8, .cls-9, .cls-12 {
        stroke-linecap: round;
      }

      .cls-16 {
        fill: #ff931e;
      }

      .cls-4 {
        stroke-dasharray: 11.09 11.09;
      }

      .cls-5 {
        stroke-width: 10px;
      }

      .cls-5, .cls-10 {
        stroke: #ff931e;
      }

      .cls-17, .cls-14 {
        fill: #14141a;
      }

      .cls-18 {
        fill: #9f5cff;
      }

      .cls-15 {
        fill: #fff;
        stroke: #6fe142;
        stroke-width: 16px;
      }

      .cls-15, .cls-7, .cls-14, .cls-10, .cls-11, .cls-12 {
        stroke-miterlimit: 10;
      }

      .cls-7 {
        stroke: #434c56;
      }

      .cls-8, .cls-9, .cls-11 {
        stroke: red;
      }

      .cls-14 {
        stroke-width: 4px;
      }

      .cls-9, .cls-12 {
        stroke-width: 6px;
      }

      .cls-10 {
        stroke-width: 5px;
      }

      .cls-19 {
        fill: #bdccd4;
      }

      .cls-20 {
        clip-path: url(#clippath);
      }

      .cls-12 {
        stroke: #85e8ff;
      }
    </style>
    <clipPath id="clippath">
      <rect class="cls-1" x="615" y="442" width="134" height="63"/>
    </clipPath>
  </defs>
  <g id="path">
    <g>
      <path class="cls-7" d="M164.5,430.5l27.37-.36c1.14-.02,2.28-.02,3.42-.06l3.41-.14,6.82-.29,13.63-.57c2.28-.06,4.53-.26,6.79-.43l6.78-.51c4.51-.36,9.05-.63,13.55-1.06l13.46-1.49c2.24-.27,4.5-.45,6.72-.78l6.67-1,6.67-1,3.33-.5,3.3-.63c4.39-.86,8.8-1.63,13.18-2.55l13.05-3.03c4.32-1.18,8.64-2.29,12.97-3.52l6.49-1.93,3.24-.96,3.28-1.02,13.27-4.12c4.41-1.42,9.15-2.66,13.74-3.97l7.15-1.69,3.58-.83,3.66-.63,7.32-1.25,7.39-.77c4.94-.65,9.83-.61,14.75-.81,1.21-.03,2.48-.09,3.65-.1h65.7l7.04.02,6.84.07c8.9.04,17.48-.3,25.63-1.6,8.12-1.3,15.77-3.59,22-7.18,3.11-1.8,5.89-3.88,8.18-6.34,2.3-2.45,4.18-5.22,5.67-8.31l.55-1.17c.19-.38.38-.77.51-1.2l.9-2.48c.26-.86.46-1.75.71-2.62.11-.44.26-.86.34-1.32l.24-1.38c.78-3.62.93-7.56,1.05-11.5"/>
      <path class="cls-7" d="M164.5,454.5l27.96-.37c1.17-.02,2.33-.02,3.5-.06l3.5-.15,7-.3,14.01-.59c2.33-.07,4.67-.27,7.01-.44l7.02-.52c4.68-.37,9.35-.65,14.03-1.1l14.04-1.55c2.34-.28,4.68-.47,7.02-.82l7.02-1.05,7.01-1.05,3.51-.53,3.5-.66c4.66-.9,9.33-1.73,13.98-2.7l13.89-3.23c4.58-1.24,9.19-2.43,13.73-3.72l6.77-2.01,3.39-1.01,3.32-1.04,13.15-4.08,3.25-1c1.08-.33,2.13-.61,3.2-.91l6.38-1.8,6.31-1.49,3.15-.74,3.16-.54,6.31-1.09,6.37-.65c4.22-.58,8.57-.52,12.86-.71,1.09-.03,2.12-.09,3.26-.1h65.7l6.79.02,6.99.07c9.53.04,19.45-.3,29.52-1.9,10.05-1.64,20.44-4.49,30.23-10.1,4.86-2.81,9.55-6.31,13.57-10.59,4.03-4.26,7.38-9.21,9.89-14.42l.91-1.97c.31-.65.6-1.31.83-1.99l1.45-4.02c.41-1.35.75-2.7,1.12-4.05.17-.68.38-1.35.51-2.03l.38-2.02c1.12-5.42,1.35-10.74,1.48-16.01"/>
      <path class="cls-11" d="M164.5,442.3l27.66-.36c1.15-.02,2.31-.02,3.46-.06l3.45-.15,6.91-.29,13.82-.58c2.3-.07,4.6-.27,6.9-.44l6.9-.51c4.59-.36,9.2-.64,13.79-1.08l13.74-1.52c2.29-.27,4.59-.46,6.87-.8l6.84-1.02,6.84-1.02,3.42-.51,3.4-.65c4.52-.88,9.06-1.68,13.57-2.62l13.47-3.13c4.45-1.21,8.91-2.36,13.34-3.62,4.41-1.33,8.85-2.58,13.24-3.99l13.21-4.1c4.39-1.41,8.86-2.57,13.3-3.84l6.74-1.59,3.37-.79,3.41-.59,6.82-1.17,6.89-.71c4.58-.61,9.21-.56,13.82-.76,1.15-.03,2.31-.09,3.46-.1h51.87c9.22,0,18.45-.04,27.67.09,9.21.04,18.45-.3,27.55-1.75,9.07-1.47,18.06-4.03,26.05-8.62,3.97-2.3,7.69-5.08,10.83-8.43,3.15-3.34,5.75-7.18,7.74-11.31l.73-1.56c.25-.52.49-1.04.67-1.59l1.17-3.24c.33-1.1.61-2.22.91-3.32.14-.56.32-1.1.42-1.67l.31-1.7c.95-4.51,1.14-9.12,1.26-13.72"/>
    </g>
  </g>
  <g id="path2">
    <g>
      <path class="cls-7" d="M1000.5,487.5H475.58s-52.59.03-52.59.03h-13.15c-2.14.06-4.52-.12-6.82-.23l-6.95-.37-3.48-.19-3.47-.4-6.94-.81c-2.31-.21-4.63-.7-6.94-1.12l-6.94-1.3-6.83-1.73-3.41-.87-3.3-1.02-6.59-2.07-6.34-2.19-6.2-2.15c-2.03-.7-4.1-1.46-6.1-2.1-4.01-1.27-8.02-2.71-12.04-3.77-16.01-4.66-32.56-7.52-49.46-9.49-4.24-.43-8.5-.76-12.75-1.15l-6.38-.56c-2.12-.21-4.28-.24-6.43-.38l-12.88-.65c-2.15-.1-4.29-.25-6.44-.3l-6.48-.12-12.95-.23-6.48-.12c-2.16-.01-4.33.03-6.5.05l-25.99.25"/>
      <path class="cls-7" d="M1000.5,463.5H475.61s-52.39.03-52.39.03h-13.1c-2.24.06-4.23-.11-6.29-.22l-6.15-.33-3.08-.16-3.05-.36-6.09-.71c-2.05-.17-4.02-.61-6.01-.97l-5.96-1.11-5.89-1.51-2.95-.75-2.96-.92-5.94-1.86-6.07-2.09-6.2-2.15c-2.1-.72-4.14-1.47-6.3-2.17-4.32-1.38-8.56-2.89-13.01-4.07-17.61-5.13-35.65-8.22-53.5-10.3-4.46-.45-8.92-.81-13.38-1.21l-6.69-.59c-2.23-.22-4.45-.26-6.67-.39l-13.34-.67c-2.22-.1-4.45-.25-6.67-.3l-6.65-.12-13.29-.24-6.65-.12c-2.21-.01-4.42.03-6.63.05l-26.49.26"/>
      <path class="cls-11" d="M1000.5,475.7H475.59s-52.49.03-52.49.03c-17.47.31-35.1-.45-52.25-4.14-8.52-2.05-16.92-4.54-25.16-7.51-8.27-2.86-16.5-5.83-24.91-8.21-16.79-4.89-34.08-7.86-51.45-9.89-4.35-.44-8.71-.78-13.06-1.18l-6.53-.58c-2.18-.22-4.37-.25-6.55-.38l-13.1-.66c-2.18-.1-4.37-.25-6.55-.3l-6.56-.12-13.12-.24-6.56-.12c-2.19-.01-4.37.03-6.56.05l-26.24.25"/>
    </g>
  </g>
  <g id="box2">
    <line class="cls-15" x1="149.5" y1="402.5" x2="167" y2="402.5"/>
  </g>
  <g id="box3">
    <line class="cls-15" x1="651.5" y1="269.5" x2="669" y2="269.5"/>
  </g>
  <g id="box">
    <line class="cls-15" x1="149.5" y1="475.5" x2="167" y2="475.5"/>
  </g>
  <g>
    <circle class="cls-12" cx="51" cy="397" r="32"/>
    <path class="cls-12" d="M51,441.96c15,0,29-12.96,29.16-12.96,18.84,0,18.84,69,18.84,69"/>
    <path class="cls-12" d="M51,441.96c-15,0-29-12.96-29.16-12.96-18.84,0-18.84,69-18.84,69"/>
  </g>
  <g>
    <rect class="cls-19" x="335" y="501" width="107" height="46"/>
    <g>
      <path class="cls-17" d="M345.96,535.92v-24.61h14.06v1.76h1.76v1.76h1.76v17.58h-1.76v1.76h-1.76v1.76h-14.06ZM349.48,514.83v17.58h8.79v-1.76h1.76v-14.06h-1.76v-1.76h-8.79Z"/>
      <path class="cls-17" d="M370.57,535.92h-3.52v-17.58h1.76v-1.76h1.76v-1.76h1.76v-1.76h1.76v-1.76h3.52v1.76h1.76v1.76h1.76v1.76h1.76v1.76h1.76v17.58h-3.52v-7.03h-10.55v7.03ZM370.57,525.37h10.55v-5.27h-1.76v-1.76h-1.76v-1.76h-3.52v1.76h-1.76v1.76h-1.76v5.27Z"/>
      <path class="cls-17" d="M395.18,514.83h-7.03v-3.52h17.58v3.52h-7.03v21.09h-3.52v-21.09Z"/>
      <path class="cls-17" d="M412.76,535.92h-3.52v-17.58h1.76v-1.76h1.76v-1.76h1.76v-1.76h1.76v-1.76h3.52v1.76h1.76v1.76h1.76v1.76h1.76v1.76h1.76v17.58h-3.52v-7.03h-10.55v7.03ZM412.76,525.37h10.55v-5.27h-1.76v-1.76h-1.76v-1.76h-3.52v1.76h-1.76v1.76h-1.76v5.27Z"/>
    </g>
  </g>
  <g>
    <rect class="cls-19" x="333" y="332" width="107" height="46"/>
    <g>
      <path class="cls-17" d="M347.48,366.92h-3.52v-17.58h1.76v-1.76h1.76v-1.76h1.76v-1.76h1.76v-1.76h3.52v1.76h1.76v1.76h1.76v1.76h1.76v1.76h1.76v17.58h-3.52v-7.03h-10.55v7.03ZM347.48,356.37h10.55v-5.27h-1.76v-1.76h-1.76v-1.76h-3.52v1.76h-1.76v1.76h-1.76v5.27Z"/>
      <path class="cls-17" d="M366.81,363.4h-1.76v-21.09h3.52v19.34h1.76v1.76h7.03v-1.76h1.76v-19.34h3.52v21.09h-1.76v1.76h-1.76v1.76h-10.55v-1.76h-1.76v-1.76Z"/>
      <path class="cls-17" d="M393.18,345.83h-7.03v-3.52h17.58v3.52h-7.03v21.09h-3.52v-21.09Z"/>
      <path class="cls-17" d="M410.76,356.37v10.55h-3.52v-24.61h3.52v10.55h10.55v-10.55h3.52v24.61h-3.52v-10.55h-10.55Z"/>
    </g>
  </g>
  <g>
    <rect class="cls-13" x="649" y="393" width="118" height="40"/>
    <g>
      <path class="cls-17" d="M661.48,425.92h-3.52v-17.58h1.76v-1.76h1.76v-1.76h1.76v-1.76h1.76v-1.76h3.52v1.76h1.76v1.76h1.76v1.76h1.76v1.76h1.76v17.58h-3.52v-7.03h-10.55v7.03ZM661.48,415.37h10.55v-5.27h-1.76v-1.76h-1.76v-1.76h-3.52v1.76h-1.76v1.76h-1.76v5.27Z"/>
      <path class="cls-17" d="M680.81,422.4h-1.76v-21.09h3.52v19.34h1.76v1.76h7.03v-1.76h1.76v-19.34h3.52v21.09h-1.76v1.76h-1.76v1.76h-10.55v-1.76h-1.76v-1.76Z"/>
      <path class="cls-17" d="M700.15,425.92v-24.61h14.06v1.76h1.76v1.76h1.76v17.58h-1.76v1.76h-1.76v1.76h-14.06ZM703.66,404.83v17.58h8.79v-1.76h1.76v-14.06h-1.76v-1.76h-8.79Z"/>
      <path class="cls-17" d="M724.76,425.92v-3.52h3.52v-17.58h-3.52v-3.52h10.55v3.52h-3.52v17.58h3.52v3.52h-10.55Z"/>
      <path class="cls-17" d="M749.37,404.83h-7.03v-3.52h17.58v3.52h-7.03v21.09h-3.52v-21.09Z"/>
    </g>
  </g>
  <g>
    <rect class="cls-18" x="499" y="299" width="210" height="46"/>
    <g>
      <path class="cls-17" d="M509.96,309.31h3.52v19.34h3.52v-8.79h3.52v8.79h3.52v-19.34h3.52v21.09h-1.76v1.76h-1.76v1.76h-3.52v-1.76h-3.52v1.76h-3.52v-1.76h-1.76v-1.76h-1.76v-21.09Z"/>
      <path class="cls-17" d="M534.57,333.92h-3.52v-17.58h1.76v-1.76h1.76v-1.76h1.76v-1.76h1.76v-1.76h3.52v1.76h1.76v1.76h1.76v1.76h1.76v1.76h1.76v17.58h-3.52v-7.03h-10.55v7.03ZM534.57,323.37h10.55v-5.27h-1.76v-1.76h-1.76v-1.76h-3.52v1.76h-1.76v1.76h-1.76v5.27Z"/>
      <path class="cls-17" d="M557.42,323.37h-1.76v10.55h-3.52v-24.61h14.06v1.76h1.76v1.76h1.76v7.03h-1.76v1.76h-1.76v1.76h-3.52v1.76h1.76v1.76h1.76v1.76h1.76v1.76h1.76v3.52h-3.52v-1.76h-1.76v-1.76h-1.76v-1.76h-1.76v-1.76h-1.76v-1.76h-1.76v-1.76ZM555.66,312.83v7.03h8.79v-1.76h1.76v-3.52h-1.76v-1.76h-8.79Z"/>
      <path class="cls-17" d="M576.76,323.37v10.55h-3.52v-24.61h14.06v1.76h1.76v1.76h1.76v7.03h-1.76v1.76h-1.76v1.76h-10.55ZM576.76,312.83v7.03h8.79v-1.76h1.76v-3.52h-1.76v-1.76h-8.79Z"/>
      <path class="cls-17" d="M610.16,312.83h1.76v3.52h-3.52v-1.76h-1.76v-1.76h-7.03v1.76h-1.76v14.06h1.76v1.76h7.03v-1.76h1.76v-5.27h-5.27v-3.52h8.79v10.55h-1.76v1.76h-1.76v1.76h-10.55v-1.76h-1.76v-1.76h-1.76v-17.58h1.76v-1.76h1.76v-1.76h10.55v1.76h1.76v1.76Z"/>
      <path class="cls-17" d="M618.95,333.92h-3.52v-17.58h1.76v-1.76h1.76v-1.76h1.76v-1.76h1.76v-1.76h3.52v1.76h1.76v1.76h1.76v1.76h1.76v1.76h1.76v17.58h-3.52v-7.03h-10.55v7.03ZM618.95,323.37h10.55v-5.27h-1.76v-1.76h-1.76v-1.76h-3.52v1.76h-1.76v1.76h-1.76v5.27Z"/>
      <path class="cls-17" d="M643.55,312.83h-7.03v-3.52h17.58v3.52h-7.03v21.09h-3.52v-21.09Z"/>
      <path class="cls-17" d="M675.2,309.31v3.52h-14.06v7.03h10.55v3.52h-10.55v7.03h14.06v3.52h-17.58v-24.61h17.58Z"/>
    </g>
  </g>
  <polyline class="cls-9" points="519.5 3 519.5 254 575 254"/>
  <polyline class="cls-9" points="575 574 519.5 574 519.5 801"/>
  <line class="cls-8" x1="519.5" y1="237.42" x2="561.96" y2="194.96"/>
  <line class="cls-8" x1="519.5" y1="195.42" x2="561.96" y2="152.96"/>
  <line class="cls-8" x1="519.5" y1="153.42" x2="561.96" y2="110.96"/>
  <line class="cls-8" x1="519.5" y1="111.42" x2="561.96" y2="68.96"/>
  <line class="cls-8" x1="519.5" y1="69.42" x2="561.96" y2="26.96"/>
  <line class="cls-8" x1="519.5" y1="786.42" x2="561.96" y2="743.96"/>
  <line class="cls-8" x1="519.5" y1="744.42" x2="561.96" y2="701.96"/>
  <line class="cls-8" x1="519.5" y1="702.42" x2="561.96" y2="659.96"/>
  <line class="cls-8" x1="519.5" y1="660.42" x2="561.96" y2="617.96"/>
  <line class="cls-8" x1="519.5" y1="618.42" x2="561.96" y2="575.96"/>
  <line class="cls-3" x1="482.5" y1="452.64" x2="482.5" y2="431.5"/>
  <polyline class="cls-3" points="806.5 498.5 806.5 535.5 482.5 535.5 482.5 498.5"/>
  <polyline class="cls-3" points="718.06 284.5 806.5 284.5 806.5 452.64"/>
  <polyline class="cls-3" points="482.5 382.5 482.5 284.5 665.49 284.5"/>
  <g>
    <rect class="cls-18" x="736" y="31" width="100" height="46"/>
    <g>
      <path class="cls-17" d="M762.78,44.83h1.76v3.52h-3.52v-1.76h-1.76v-1.76h-7.03v1.76h-1.76v3.52h1.76v1.76h8.79v1.76h1.76v1.76h1.76v7.03h-1.76v1.76h-1.76v1.76h-10.55v-1.76h-1.76v-1.76h-1.76v-3.52h3.52v1.76h1.76v1.76h7.03v-1.76h1.76v-3.52h-1.76v-1.76h-8.79v-1.76h-1.76v-1.76h-1.76v-7.03h1.76v-1.76h1.76v-1.76h10.55v1.76h1.76v1.76Z"/>
      <path class="cls-17" d="M783.88,44.83h1.76v3.52h-3.52v-1.76h-1.76v-1.76h-7.03v1.76h-1.76v3.52h1.76v1.76h8.79v1.76h1.76v1.76h1.76v7.03h-1.76v1.76h-1.76v1.76h-10.55v-1.76h-1.76v-1.76h-1.76v-3.52h3.52v1.76h1.76v1.76h7.03v-1.76h1.76v-3.52h-1.76v-1.76h-8.79v-1.76h-1.76v-1.76h-1.76v-7.03h1.76v-1.76h1.76v-1.76h10.55v1.76h1.76v1.76Z"/>
      <path class="cls-17" d="M792.66,43.07v-1.76h10.55v1.76h1.76v1.76h1.76v17.58h-1.76v1.76h-1.76v1.76h-10.55v-1.76h-1.76v-1.76h-1.76v-17.58h1.76v-1.76h1.76ZM801.45,44.83h-7.03v1.76h-1.76v14.06h1.76v1.76h7.03v-1.76h1.76v-14.06h-1.76v-1.76Z"/>
    </g>
  </g>
  <g>
    <rect class="cls-16" x="949" y="354" width="366" height="46"/>
    <g>
      <path class="cls-17" d="M963.48,388.92v-3.52h3.52v-17.58h-3.52v-3.52h10.55v3.52h-3.52v17.58h3.52v3.52h-10.55Z"/>
      <path class="cls-17" d="M984.57,374.86v14.06h-3.52v-24.61h3.52v5.27h1.76v1.76h1.76v1.76h1.76v1.76h1.76v1.76h1.76v1.76h1.76v-14.06h3.52v24.61h-3.52v-5.27h-1.76v-1.76h-1.76v-1.76h-1.76v-1.76h-1.76v-1.76h-1.76v-1.76h-1.76Z"/>
      <path class="cls-17" d="M1009.18,367.83h-7.03v-3.52h17.58v3.52h-7.03v21.09h-3.52v-21.09Z"/>
      <path class="cls-17" d="M1040.82,364.31v3.52h-14.06v7.03h10.55v3.52h-10.55v7.03h14.06v3.52h-17.58v-24.61h17.58Z"/>
      <path class="cls-17" d="M1049.61,378.37h-1.76v10.55h-3.52v-24.61h14.06v1.76h1.76v1.76h1.76v7.03h-1.76v1.76h-1.76v1.76h-3.52v1.76h1.76v1.76h1.76v1.76h1.76v1.76h1.76v3.52h-3.52v-1.76h-1.76v-1.76h-1.76v-1.76h-1.76v-1.76h-1.76v-1.76h-1.76v-1.76ZM1047.85,367.83v7.03h8.79v-1.76h1.76v-3.52h-1.76v-1.76h-8.79Z"/>
      <path class="cls-17" d="M1068.95,374.86v14.06h-3.52v-24.61h3.52v5.27h1.76v1.76h1.76v1.76h1.76v1.76h1.76v1.76h1.76v1.76h1.76v-14.06h3.52v24.61h-3.52v-5.27h-1.76v-1.76h-1.76v-1.76h-1.76v-1.76h-1.76v-1.76h-1.76v-1.76h-1.76Z"/>
      <path class="cls-17" d="M1090.04,388.92h-3.52v-17.58h1.76v-1.76h1.76v-1.76h1.76v-1.76h1.76v-1.76h3.52v1.76h1.76v1.76h1.76v1.76h1.76v1.76h1.76v17.58h-3.52v-7.03h-10.55v7.03ZM1090.04,378.37h10.55v-5.27h-1.76v-1.76h-1.76v-1.76h-3.52v1.76h-1.76v1.76h-1.76v5.27Z"/>
      <path class="cls-17" d="M1107.62,388.92v-24.61h3.52v21.09h14.06v3.52h-17.58Z"/>
      <path class="cls-17" d="M1165.63,367.83h1.76v3.52h-3.52v-1.76h-1.76v-1.76h-7.03v1.76h-1.76v3.52h1.76v1.76h8.79v1.76h1.76v1.76h1.76v7.03h-1.76v1.76h-1.76v1.76h-10.55v-1.76h-1.76v-1.76h-1.76v-3.52h3.52v1.76h1.76v1.76h7.03v-1.76h1.76v-3.52h-1.76v-1.76h-8.79v-1.76h-1.76v-1.76h-1.76v-7.03h1.76v-1.76h1.76v-1.76h10.55v1.76h1.76v1.76Z"/>
      <path class="cls-17" d="M1188.48,364.31v3.52h-14.06v7.03h10.55v3.52h-10.55v7.03h14.06v3.52h-17.58v-24.61h17.58Z"/>
      <path class="cls-17" d="M1197.27,378.37h-1.76v10.55h-3.52v-24.61h14.06v1.76h1.76v1.76h1.76v7.03h-1.76v1.76h-1.76v1.76h-3.52v1.76h1.76v1.76h1.76v1.76h1.76v1.76h1.76v3.52h-3.52v-1.76h-1.76v-1.76h-1.76v-1.76h-1.76v-1.76h-1.76v-1.76h-1.76v-1.76ZM1195.51,367.83v7.03h8.79v-1.76h1.76v-3.52h-1.76v-1.76h-8.79Z"/>
      <path class="cls-17" d="M1214.84,381.89h-1.76v-17.58h3.52v15.82h1.76v1.76h1.76v1.76h3.52v-1.76h1.76v-1.76h1.76v-15.82h3.52v17.58h-1.76v1.76h-1.76v1.76h-1.76v1.76h-1.76v1.76h-3.52v-1.76h-1.76v-1.76h-1.76v-1.76h-1.76v-1.76Z"/>
      <path class="cls-17" d="M1251.76,364.31v3.52h-14.06v7.03h10.55v3.52h-10.55v7.03h14.06v3.52h-17.58v-24.61h17.58Z"/>
      <path class="cls-17" d="M1260.55,378.37h-1.76v10.55h-3.52v-24.61h14.06v1.76h1.76v1.76h1.76v7.03h-1.76v1.76h-1.76v1.76h-3.52v1.76h1.76v1.76h1.76v1.76h1.76v1.76h1.76v3.52h-3.52v-1.76h-1.76v-1.76h-1.76v-1.76h-1.76v-1.76h-1.76v-1.76h-1.76v-1.76ZM1258.79,367.83v7.03h8.79v-1.76h1.76v-3.52h-1.76v-1.76h-8.79Z"/>
      <path class="cls-17" d="M1292.19,367.83h1.76v3.52h-3.52v-1.76h-1.76v-1.76h-7.03v1.76h-1.76v3.52h1.76v1.76h8.79v1.76h1.76v1.76h1.76v7.03h-1.76v1.76h-1.76v1.76h-10.55v-1.76h-1.76v-1.76h-1.76v-3.52h3.52v1.76h1.76v1.76h7.03v-1.76h1.76v-3.52h-1.76v-1.76h-8.79v-1.76h-1.76v-1.76h-1.76v-7.03h1.76v-1.76h1.76v-1.76h10.55v1.76h1.76v1.76Z"/>
    </g>
    <rect class="cls-10" x="1014.5" y="439.5" width="292" height="70" rx="6.25" ry="6.25"/>
    <line class="cls-5" x1="1034" y1="453.5" x2="1033.52" y2="494"/>
    <line class="cls-5" x1="1051" y1="453.5" x2="1050.52" y2="494"/>
    <line class="cls-5" x1="1068" y1="453.5" x2="1067.52" y2="494"/>
    <line class="cls-5" x1="1085" y1="453.5" x2="1084.52" y2="494"/>
    <line class="cls-5" x1="1102" y1="453.5" x2="1101.52" y2="494"/>
    <line class="cls-5" x1="1119" y1="453.5" x2="1118.52" y2="494"/>
    <line class="cls-5" x1="1136" y1="453.5" x2="1135.52" y2="494"/>
    <line class="cls-5" x1="1153" y1="453.5" x2="1152.52" y2="494"/>
    <line class="cls-5" x1="1223" y1="456" x2="1290.01" y2="456.48"/>
    <line class="cls-5" x1="1223" y1="472" x2="1290.01" y2="472.48"/>
  </g>
  <rect class="cls-3" x="723.5" y="19.5" width="229" height="99"/>
  <g id="path3">
    <g>
      <path class="cls-7" d="M679.5,284.5c.06-10.75,1.04-21.81,4.14-32.87,1.58-5.51,3.7-11,6.51-16.24,2.79-5.24,6.28-10.21,10.34-14.63,4.05-4.43,8.64-8.29,13.46-11.55,4.83-3.27,9.88-5.92,14.95-8.18,10.17-4.49,20.39-7.4,30.29-9.95,9.9-2.54,19.55-4.68,28.62-7.3,9.05-2.6,17.55-5.74,24.39-10.1,6.91-4.32,11.81-9.87,14.93-16.87,3.14-6.99,4.33-15.48,4.38-24.32"/>
      <path class="cls-7" d="M703.5,284.5l.07-3.42.03-1.71.1-1.69.21-3.38.35-3.32c.54-4.4,1.3-8.71,2.46-12.78,2.33-8.15,6.07-15.37,11.45-21.21,5.34-5.87,12.36-10.45,20.46-14.01,8.09-3.59,17.1-6.22,26.5-8.63,9.41-2.42,19.24-4.59,29.34-7.5,5.05-1.46,10.16-3.11,15.3-5.17,5.14-2.07,10.3-4.56,15.3-7.74,4.99-3.16,9.82-7.05,13.94-11.73,4.14-4.66,7.55-10.03,10.04-15.64,2.5-5.62,4.1-11.43,5.07-17.15.97-5.73,1.34-11.37,1.38-16.92"/>
      <path class="cls-11" d="M691.3,284.5c.05-9.97.98-20.01,3.69-29.64,1.38-4.8,3.2-9.49,5.56-13.9,2.35-4.41,5.25-8.53,8.63-12.22,3.38-3.69,7.22-6.94,11.36-9.74,4.14-2.8,8.58-5.15,13.14-7.17,9.14-4.05,18.77-6.82,28.43-9.3,9.66-2.48,19.4-4.63,28.97-7.4,9.55-2.76,19.03-6.14,27.45-11.48,4.19-2.66,8.09-5.81,11.37-9.55,3.29-3.71,5.99-7.95,8.01-12.48,4.06-9.11,5.33-19.2,5.4-29.11"/>
    </g>
  </g>
  <g>
    <rect class="cls-17" x="614.5" y="442.5" width="134" height="63"/>
    <g>
      <polyline class="cls-6" points="748.5 499.5 748.5 505.5 742.5 505.5"/>
      <line class="cls-4" x1="731.41" y1="505.5" x2="626.05" y2="505.5"/>
      <polyline class="cls-6" points="620.5 505.5 614.5 505.5 614.5 499.5"/>
      <line class="cls-2" x1="614.5" y1="489.3" x2="614.5" y2="453.6"/>
      <polyline class="cls-6" points="614.5 448.5 614.5 442.5 620.5 442.5"/>
      <line class="cls-4" x1="631.59" y1="442.5" x2="736.95" y2="442.5"/>
      <polyline class="cls-6" points="742.5 442.5 748.5 442.5 748.5 448.5"/>
      <line class="cls-2" x1="748.5" y1="458.7" x2="748.5" y2="494.4"/>
    </g>
  </g>
  <circle class="cls-17" cx="638" cy="355" r="18"/>
  <line class="cls-14" x1="638.48" y1="442.07" x2="638.48" y2="363.33"/>
  <circle class="cls-14" cx="638" cy="355" r="12"/>
  <g class="cls-20">
    <g id="flyingparticles">
      <g id="zoomboox1">
        <line class="cls-15" x1="613.88" y1="461.75" x2="622.63" y2="461.75"/>
      </g>
      <g id="zoomboox1-2" data-name="zoomboox1">
        <line class="cls-15" x1="641.88" y1="487" x2="650.63" y2="487"/>
      </g>
      <g id="zoomboox1-3" data-name="zoomboox1">
        <line class="cls-15" x1="662.38" y1="453.75" x2="671.13" y2="453.75"/>
      </g>
      <g id="zoomboox1-4" data-name="zoomboox1">
        <line class="cls-15" x1="694.38" y1="482" x2="703.13" y2="482"/>
      </g>
      <g id="zoomboox1-5" data-name="zoomboox1">
        <line class="cls-15" x1="714.38" y1="458" x2="723.13" y2="458"/>
      </g>
      <g id="zoomboox1-6" data-name="zoomboox1">
        <line class="cls-15" x1="749.88" y1="482" x2="758.63" y2="482"/>
      </g>
      <g id="zoomboox1-7" data-name="zoomboox1">
        <line class="cls-15" x1="765.88" y1="453" x2="774.63" y2="453"/>
      </g>
    </g>
  </g>
</svg>