<svg height="8mm" viewBox="0 0 60 8" width="60mm" xmlns="http://www.w3.org/2000/svg"><g fill="#d2f0fd" stroke-width=".264583"><path d="m11.538149.26599-3.0395654 7.4295h-2.19075l-.4595459-4.8895-1.9534541 4.8895h-2.19075l-.78101362-7.4295h1.93675002l.2661529 5.40808 2.1256801-5.40808h1.989667l.4672359 5.40808 1.8822643-5.40808z"/><path d="m14.900136 6.38316h-2.772833l-.536128 1.31233h-1.894417l3.206895-7.4295h2.0955l2.169438 7.4295h-1.915583zm-.368131-1.397-.730842-2.71992-1.100074 2.71992z"/><path d="m21.621427 7.69549-1.545166-2.80458h-.433917l.000004 2.80458h-1.80975v-7.4295h3.037417q.878416 0 1.49225.30692.624416.30691.931333.84666.306917.52917.306917 1.18534.000001.74083-.423334 1.32291-.41275.58209-1.227666.8255l1.714496 2.94217zm-1.979083-4.08517h1.121833q.497417 0 .740834-.24341.254-.24342.254-.68792.000011-.42333-.254-.66675-.243417-.24342-.740834-.24342h-1.121833z"/><path d="m29.90879 2.65782q0 .64559-.296333 1.18534-.296333.52916-.910167.85725-.613833.32808-1.524.32808h-1.121833v2.667h-1.80975v-7.4295h2.931583q.889 0 1.502834.30692.613833.30691.92075.84666.306916.53975.306916 1.23825zm-2.868083.93134q.518583 0 .772583-.24342.254-.24342.254-.68792 0-.4445-.254-.68791-.254-.24342-.772583-.24342h-.98425v1.86267z"/><path d="m35.563571 2.61549q-.201083-.37042-.582083-.56092-.370417-.20108-.878417-.20108-.878416 0-1.407583.58208-.529166.5715-.529166 1.53459 0 1.02658.550333 1.60866.560916.5715 1.534583.5715.66675 0 1.121833-.33866.465667-.33867.677334-.97367h-2.296584v-1.3335h3.937v1.68275q-.201083.67733-.687916 1.25942-.47625.58208-1.217084.94191-.740833.35984-1.672166.35984-1.100667 0-1.9685-.47625-.85725-.48684-1.344083-1.34409-.47625-.85725-.47625-1.95791 0-1.10067.47625-1.95792.486833-.86783 1.344083-1.34408.85725-.48684 1.957916-.48684 1.3335 0 2.243667.64559.92075.64558 1.217083 1.78858z"/><path d="m42.606476 6.38316h-2.772833l-.467407 1.31233h-1.894417l2.817849-7.4295h2.0955l2.558484 7.4295h-1.915583zm-.441283-1.397-.873273-2.71992-.957643 2.71992z"/><path d="m50.129387.26599-.000002 1.44992h-1.968499v5.97958h-1.809752v-5.97958h-1.9685l.000002-1.44992z"/><path d="m52.634481 1.71591.000002 1.50283h2.42358l.000015 1.397h-2.42358l-.000001 1.62983h2.74108l-.000002 1.44992h-4.55083v-7.4295h4.55083l-.000002 1.44992z"/></g></svg>